<svg xmlns="http://www.w3.org/2000/svg"  viewBox="0 0 24 24" width="24px" height="24px"><path d="M 12 2 C 11.2 2 10.5 2.7 10.5 3.5 L 10.5 4.1953125 C 7.9080819 4.8591614 6 7.1955357 6 10 L 6 14.837891 L 5.2792969 17 L 4 17 L 4 19 L 10.271484 19 A 2 2 0 0 0 12 22 A 2 2 0 0 0 13.732422 19 L 20 19 L 20 17 L 18.720703 17 L 18 14.837891 L 18 10 C 18 7.1955357 16.091918 4.8591614 13.5 4.1953125 L 13.5 3.5 C 13.5 2.7 12.8 2 12 2 z M 12 6 C 14.27619 6 16 7.7238095 16 10 L 16 15.162109 L 16.611328 17 L 7.3886719 17 L 8 15.162109 L 8 10 C 8 7.7238095 9.7238095 6 12 6 z"/></svg>